<svg fill="#FFFFFF" xmlns="http://www.w3.org/2000/svg"  viewBox="0 0 24 24" width="24px" height="24px"><path d="M 4 4 L 4 20 L 5 20 L 20 20 L 20 4 L 4 4 z M 12.515625 6 L 18 6 L 18 18 L 15.962891 18 C 15.931338 17.335902 15.875206 16.430387 15.763672 15.341797 C 15.555915 13.31406 15.192959 10.875522 14.40625 9.03125 C 14.164895 8.4647926 13.801161 7.7882655 13.273438 7.1875 C 12.982247 6.8560067 12.615984 6.5411883 12.185547 6.3144531 C 12.306285 6.1888693 12.406608 6.1026619 12.515625 6 z M 11 8 C 11.159892 8 11.446506 8.1381248 11.769531 8.5058594 C 12.092557 8.8735939 12.392761 9.4088637 12.566406 9.8164062 C 12.652914 10.019205 12.724851 10.274341 12.802734 10.509766 C 11.430838 11.967979 10.556512 13.850705 9.9707031 15.449219 C 9.4574615 16.849716 9.3553519 17.493103 9.2480469 18 L 6.3496094 18 C 6.5506289 17.293905 7.3201818 14.734222 8.8007812 11.568359 C 9.4950679 10.08373 10.169609 8.9521571 10.792969 8.0546875 C 10.866575 8.0303524 10.945175 8 11 8 z"/></svg>